# xmcd CD database file
#
# Track frame offsets:
#	150
#	15377
#	30108
#	50966
#	73540
#	103988
#	115737
#	136699
#	158456
#	185610
#	205484
#	223816
#	235968
#	250620
#	272228
#	294725
#
# Disc length: 4318 seconds
#
# Revision: 0
# Processed by: cddbd v1.5.2PL0 Copyright (c) Steve Scherf et al.
# Submitted via: CDex 1.51
#
DISCID=e810dc10
DTITLE=The Blue Flagships - After Hour Joins
DYEAR=2004
DGENRE=Jazz
TTITLE0=That'll Get It
TTITLE1=Don't Blame Shorty For That
TTITLE2=Blue Ivories
TTITLE3=Papa Ain't Salty
TTITLE4=Equality Blues
TTITLE5=Freddie's Lack
TTITLE6=It's Love Baby
TTITLE7=East Bay Stroll
TTITLE8=Goin' Home
TTITLE9=After Hour Joint
TTITLE10=Fine And Mellow
TTITLE11=Cry Hard Luck
TTITLE12=I Sat And Cried
TTITLE13=Boogie Woogie Country Girl
TTITLE14=Tina's Canteen
TTITLE15=That Little Town Rocks
EXTD=YEAR: 2004
EXTT0=
EXTT1=
EXTT2=
EXTT3=
EXTT4=
EXTT5=
EXTT6=
EXTT7=
EXTT8=
EXTT9=
EXTT10=
EXTT11=
EXTT12=
EXTT13=
EXTT14=
EXTT15=
PLAYORDER=
